%TF.GenerationSoftware,KiCad,Pcbnew,9.0.7*%
%TF.CreationDate,2026-03-09T14:32:53-07:00*%
%TF.ProjectId,plant_water_array,706c616e-745f-4776-9174-65725f617272,rev?*%
%TF.SameCoordinates,Original*%
%TF.FileFunction,Soldermask,Bot*%
%TF.FilePolarity,Negative*%
%FSLAX46Y46*%
G04 Gerber Fmt 4.6, Leading zero omitted, Abs format (unit mm)*
G04 Created by KiCad (PCBNEW 9.0.7) date 2026-03-09 14:32:53*
%MOMM*%
%LPD*%
G01*
G04 APERTURE LIST*
G04 Aperture macros list*
%AMRoundRect*
0 Rectangle with rounded corners*
0 $1 Rounding radius*
0 $2 $3 $4 $5 $6 $7 $8 $9 X,Y pos of 4 corners*
0 Add a 4 corners polygon primitive as box body*
4,1,4,$2,$3,$4,$5,$6,$7,$8,$9,$2,$3,0*
0 Add four circle primitives for the rounded corners*
1,1,$1+$1,$2,$3*
1,1,$1+$1,$4,$5*
1,1,$1+$1,$6,$7*
1,1,$1+$1,$8,$9*
0 Add four rect primitives between the rounded corners*
20,1,$1+$1,$2,$3,$4,$5,0*
20,1,$1+$1,$4,$5,$6,$7,0*
20,1,$1+$1,$6,$7,$8,$9,0*
20,1,$1+$1,$8,$9,$2,$3,0*%
G04 Aperture macros list end*
%ADD10R,1.700000X1.700000*%
%ADD11C,1.700000*%
%ADD12O,1.700000X1.950000*%
%ADD13RoundRect,0.250000X-0.600000X-0.725000X0.600000X-0.725000X0.600000X0.725000X-0.600000X0.725000X0*%
G04 APERTURE END LIST*
D10*
%TO.C,J_OLED*%
X47500000Y-15500000D03*
D11*
X50040000Y-15500000D03*
X52580000Y-15500000D03*
X55120000Y-15500000D03*
%TD*%
D10*
%TO.C,J_ESP_L*%
X38100000Y-50940000D03*
D11*
X38100000Y-53480000D03*
X38100000Y-56020000D03*
X38100000Y-58560000D03*
X38100000Y-61100000D03*
X38100000Y-63640000D03*
X38100000Y-66180000D03*
X38100000Y-68720000D03*
X38100000Y-71260000D03*
X38100000Y-73800000D03*
X38100000Y-76340000D03*
X38100000Y-78880000D03*
X38100000Y-81420000D03*
X38100000Y-83960000D03*
X38100000Y-86500000D03*
%TD*%
D10*
%TO.C,J_ESP_R*%
X63500000Y-50940000D03*
D11*
X63500000Y-53480000D03*
X63500000Y-56020000D03*
X63500000Y-58560000D03*
X63500000Y-61100000D03*
X63500000Y-63640000D03*
X63500000Y-66180000D03*
X63500000Y-68720000D03*
X63500000Y-71260000D03*
X63500000Y-73800000D03*
X63500000Y-76340000D03*
X63500000Y-78880000D03*
X63500000Y-81420000D03*
X63500000Y-83960000D03*
X63500000Y-86500000D03*
%TD*%
D12*
%TO.C,J_S2*%
X25900000Y-70795000D03*
X23400000Y-70795000D03*
D13*
X20900000Y-70795000D03*
%TD*%
D12*
%TO.C,J_S4*%
X25900000Y-50915000D03*
X23400000Y-50915000D03*
D13*
X20900000Y-50915000D03*
%TD*%
D12*
%TO.C,J_S3*%
X26000000Y-40975000D03*
X23500000Y-40975000D03*
D13*
X21000000Y-40975000D03*
%TD*%
D12*
%TO.C,J_S5*%
X25900000Y-80735000D03*
X23400000Y-80735000D03*
D13*
X20900000Y-80735000D03*
%TD*%
D12*
%TO.C,J_S1*%
X25900000Y-60855000D03*
X23400000Y-60855000D03*
D13*
X20900000Y-60855000D03*
%TD*%
M02*
