%TF.GenerationSoftware,KiCad,Pcbnew,9.0.7*%
%TF.CreationDate,2026-03-09T14:32:53-07:00*%
%TF.ProjectId,plant_water_array,706c616e-745f-4776-9174-65725f617272,rev?*%
%TF.SameCoordinates,Original*%
%TF.FileFunction,Legend,Top*%
%TF.FilePolarity,Positive*%
%FSLAX46Y46*%
G04 Gerber Fmt 4.6, Leading zero omitted, Abs format (unit mm)*
G04 Created by KiCad (PCBNEW 9.0.7) date 2026-03-09 14:32:53*
%MOMM*%
%LPD*%
G01*
G04 APERTURE LIST*
%ADD10C,0.150000*%
%ADD11C,0.120000*%
G04 APERTURE END LIST*
D10*
X44184819Y-17619047D02*
X44899104Y-17619047D01*
X44899104Y-17619047D02*
X45041961Y-17666666D01*
X45041961Y-17666666D02*
X45137200Y-17761904D01*
X45137200Y-17761904D02*
X45184819Y-17904761D01*
X45184819Y-17904761D02*
X45184819Y-17999999D01*
X45280057Y-17380952D02*
X45280057Y-16619047D01*
X44184819Y-16190475D02*
X44184819Y-15999999D01*
X44184819Y-15999999D02*
X44232438Y-15904761D01*
X44232438Y-15904761D02*
X44327676Y-15809523D01*
X44327676Y-15809523D02*
X44518152Y-15761904D01*
X44518152Y-15761904D02*
X44851485Y-15761904D01*
X44851485Y-15761904D02*
X45041961Y-15809523D01*
X45041961Y-15809523D02*
X45137200Y-15904761D01*
X45137200Y-15904761D02*
X45184819Y-15999999D01*
X45184819Y-15999999D02*
X45184819Y-16190475D01*
X45184819Y-16190475D02*
X45137200Y-16285713D01*
X45137200Y-16285713D02*
X45041961Y-16380951D01*
X45041961Y-16380951D02*
X44851485Y-16428570D01*
X44851485Y-16428570D02*
X44518152Y-16428570D01*
X44518152Y-16428570D02*
X44327676Y-16380951D01*
X44327676Y-16380951D02*
X44232438Y-16285713D01*
X44232438Y-16285713D02*
X44184819Y-16190475D01*
X45184819Y-14857142D02*
X45184819Y-15333332D01*
X45184819Y-15333332D02*
X44184819Y-15333332D01*
X44661009Y-14523808D02*
X44661009Y-14190475D01*
X45184819Y-14047618D02*
X45184819Y-14523808D01*
X45184819Y-14523808D02*
X44184819Y-14523808D01*
X44184819Y-14523808D02*
X44184819Y-14047618D01*
X45184819Y-13619046D02*
X44184819Y-13619046D01*
X44184819Y-13619046D02*
X44184819Y-13380951D01*
X44184819Y-13380951D02*
X44232438Y-13238094D01*
X44232438Y-13238094D02*
X44327676Y-13142856D01*
X44327676Y-13142856D02*
X44422914Y-13095237D01*
X44422914Y-13095237D02*
X44613390Y-13047618D01*
X44613390Y-13047618D02*
X44756247Y-13047618D01*
X44756247Y-13047618D02*
X44946723Y-13095237D01*
X44946723Y-13095237D02*
X45041961Y-13142856D01*
X45041961Y-13142856D02*
X45137200Y-13238094D01*
X45137200Y-13238094D02*
X45184819Y-13380951D01*
X45184819Y-13380951D02*
X45184819Y-13619046D01*
X35647618Y-47624819D02*
X35647618Y-48339104D01*
X35647618Y-48339104D02*
X35599999Y-48481961D01*
X35599999Y-48481961D02*
X35504761Y-48577200D01*
X35504761Y-48577200D02*
X35361904Y-48624819D01*
X35361904Y-48624819D02*
X35266666Y-48624819D01*
X35885714Y-48720057D02*
X36647618Y-48720057D01*
X36885714Y-48101009D02*
X37219047Y-48101009D01*
X37361904Y-48624819D02*
X36885714Y-48624819D01*
X36885714Y-48624819D02*
X36885714Y-47624819D01*
X36885714Y-47624819D02*
X37361904Y-47624819D01*
X37742857Y-48577200D02*
X37885714Y-48624819D01*
X37885714Y-48624819D02*
X38123809Y-48624819D01*
X38123809Y-48624819D02*
X38219047Y-48577200D01*
X38219047Y-48577200D02*
X38266666Y-48529580D01*
X38266666Y-48529580D02*
X38314285Y-48434342D01*
X38314285Y-48434342D02*
X38314285Y-48339104D01*
X38314285Y-48339104D02*
X38266666Y-48243866D01*
X38266666Y-48243866D02*
X38219047Y-48196247D01*
X38219047Y-48196247D02*
X38123809Y-48148628D01*
X38123809Y-48148628D02*
X37933333Y-48101009D01*
X37933333Y-48101009D02*
X37838095Y-48053390D01*
X37838095Y-48053390D02*
X37790476Y-48005771D01*
X37790476Y-48005771D02*
X37742857Y-47910533D01*
X37742857Y-47910533D02*
X37742857Y-47815295D01*
X37742857Y-47815295D02*
X37790476Y-47720057D01*
X37790476Y-47720057D02*
X37838095Y-47672438D01*
X37838095Y-47672438D02*
X37933333Y-47624819D01*
X37933333Y-47624819D02*
X38171428Y-47624819D01*
X38171428Y-47624819D02*
X38314285Y-47672438D01*
X38742857Y-48624819D02*
X38742857Y-47624819D01*
X38742857Y-47624819D02*
X39123809Y-47624819D01*
X39123809Y-47624819D02*
X39219047Y-47672438D01*
X39219047Y-47672438D02*
X39266666Y-47720057D01*
X39266666Y-47720057D02*
X39314285Y-47815295D01*
X39314285Y-47815295D02*
X39314285Y-47958152D01*
X39314285Y-47958152D02*
X39266666Y-48053390D01*
X39266666Y-48053390D02*
X39219047Y-48101009D01*
X39219047Y-48101009D02*
X39123809Y-48148628D01*
X39123809Y-48148628D02*
X38742857Y-48148628D01*
X39504762Y-48720057D02*
X40266666Y-48720057D01*
X40980952Y-48624819D02*
X40504762Y-48624819D01*
X40504762Y-48624819D02*
X40504762Y-47624819D01*
X60952380Y-47624819D02*
X60952380Y-48339104D01*
X60952380Y-48339104D02*
X60904761Y-48481961D01*
X60904761Y-48481961D02*
X60809523Y-48577200D01*
X60809523Y-48577200D02*
X60666666Y-48624819D01*
X60666666Y-48624819D02*
X60571428Y-48624819D01*
X61190476Y-48720057D02*
X61952380Y-48720057D01*
X62190476Y-48101009D02*
X62523809Y-48101009D01*
X62666666Y-48624819D02*
X62190476Y-48624819D01*
X62190476Y-48624819D02*
X62190476Y-47624819D01*
X62190476Y-47624819D02*
X62666666Y-47624819D01*
X63047619Y-48577200D02*
X63190476Y-48624819D01*
X63190476Y-48624819D02*
X63428571Y-48624819D01*
X63428571Y-48624819D02*
X63523809Y-48577200D01*
X63523809Y-48577200D02*
X63571428Y-48529580D01*
X63571428Y-48529580D02*
X63619047Y-48434342D01*
X63619047Y-48434342D02*
X63619047Y-48339104D01*
X63619047Y-48339104D02*
X63571428Y-48243866D01*
X63571428Y-48243866D02*
X63523809Y-48196247D01*
X63523809Y-48196247D02*
X63428571Y-48148628D01*
X63428571Y-48148628D02*
X63238095Y-48101009D01*
X63238095Y-48101009D02*
X63142857Y-48053390D01*
X63142857Y-48053390D02*
X63095238Y-48005771D01*
X63095238Y-48005771D02*
X63047619Y-47910533D01*
X63047619Y-47910533D02*
X63047619Y-47815295D01*
X63047619Y-47815295D02*
X63095238Y-47720057D01*
X63095238Y-47720057D02*
X63142857Y-47672438D01*
X63142857Y-47672438D02*
X63238095Y-47624819D01*
X63238095Y-47624819D02*
X63476190Y-47624819D01*
X63476190Y-47624819D02*
X63619047Y-47672438D01*
X64047619Y-48624819D02*
X64047619Y-47624819D01*
X64047619Y-47624819D02*
X64428571Y-47624819D01*
X64428571Y-47624819D02*
X64523809Y-47672438D01*
X64523809Y-47672438D02*
X64571428Y-47720057D01*
X64571428Y-47720057D02*
X64619047Y-47815295D01*
X64619047Y-47815295D02*
X64619047Y-47958152D01*
X64619047Y-47958152D02*
X64571428Y-48053390D01*
X64571428Y-48053390D02*
X64523809Y-48101009D01*
X64523809Y-48101009D02*
X64428571Y-48148628D01*
X64428571Y-48148628D02*
X64047619Y-48148628D01*
X64809524Y-48720057D02*
X65571428Y-48720057D01*
X66380952Y-48624819D02*
X66047619Y-48148628D01*
X65809524Y-48624819D02*
X65809524Y-47624819D01*
X65809524Y-47624819D02*
X66190476Y-47624819D01*
X66190476Y-47624819D02*
X66285714Y-47672438D01*
X66285714Y-47672438D02*
X66333333Y-47720057D01*
X66333333Y-47720057D02*
X66380952Y-47815295D01*
X66380952Y-47815295D02*
X66380952Y-47958152D01*
X66380952Y-47958152D02*
X66333333Y-48053390D01*
X66333333Y-48053390D02*
X66285714Y-48101009D01*
X66285714Y-48101009D02*
X66190476Y-48148628D01*
X66190476Y-48148628D02*
X65809524Y-48148628D01*
X22209523Y-66699819D02*
X22209523Y-67414104D01*
X22209523Y-67414104D02*
X22161904Y-67556961D01*
X22161904Y-67556961D02*
X22066666Y-67652200D01*
X22066666Y-67652200D02*
X21923809Y-67699819D01*
X21923809Y-67699819D02*
X21828571Y-67699819D01*
X22447619Y-67795057D02*
X23209523Y-67795057D01*
X23400000Y-67652200D02*
X23542857Y-67699819D01*
X23542857Y-67699819D02*
X23780952Y-67699819D01*
X23780952Y-67699819D02*
X23876190Y-67652200D01*
X23876190Y-67652200D02*
X23923809Y-67604580D01*
X23923809Y-67604580D02*
X23971428Y-67509342D01*
X23971428Y-67509342D02*
X23971428Y-67414104D01*
X23971428Y-67414104D02*
X23923809Y-67318866D01*
X23923809Y-67318866D02*
X23876190Y-67271247D01*
X23876190Y-67271247D02*
X23780952Y-67223628D01*
X23780952Y-67223628D02*
X23590476Y-67176009D01*
X23590476Y-67176009D02*
X23495238Y-67128390D01*
X23495238Y-67128390D02*
X23447619Y-67080771D01*
X23447619Y-67080771D02*
X23400000Y-66985533D01*
X23400000Y-66985533D02*
X23400000Y-66890295D01*
X23400000Y-66890295D02*
X23447619Y-66795057D01*
X23447619Y-66795057D02*
X23495238Y-66747438D01*
X23495238Y-66747438D02*
X23590476Y-66699819D01*
X23590476Y-66699819D02*
X23828571Y-66699819D01*
X23828571Y-66699819D02*
X23971428Y-66747438D01*
X24352381Y-66795057D02*
X24400000Y-66747438D01*
X24400000Y-66747438D02*
X24495238Y-66699819D01*
X24495238Y-66699819D02*
X24733333Y-66699819D01*
X24733333Y-66699819D02*
X24828571Y-66747438D01*
X24828571Y-66747438D02*
X24876190Y-66795057D01*
X24876190Y-66795057D02*
X24923809Y-66890295D01*
X24923809Y-66890295D02*
X24923809Y-66985533D01*
X24923809Y-66985533D02*
X24876190Y-67128390D01*
X24876190Y-67128390D02*
X24304762Y-67699819D01*
X24304762Y-67699819D02*
X24923809Y-67699819D01*
X22209523Y-46819819D02*
X22209523Y-47534104D01*
X22209523Y-47534104D02*
X22161904Y-47676961D01*
X22161904Y-47676961D02*
X22066666Y-47772200D01*
X22066666Y-47772200D02*
X21923809Y-47819819D01*
X21923809Y-47819819D02*
X21828571Y-47819819D01*
X22447619Y-47915057D02*
X23209523Y-47915057D01*
X23400000Y-47772200D02*
X23542857Y-47819819D01*
X23542857Y-47819819D02*
X23780952Y-47819819D01*
X23780952Y-47819819D02*
X23876190Y-47772200D01*
X23876190Y-47772200D02*
X23923809Y-47724580D01*
X23923809Y-47724580D02*
X23971428Y-47629342D01*
X23971428Y-47629342D02*
X23971428Y-47534104D01*
X23971428Y-47534104D02*
X23923809Y-47438866D01*
X23923809Y-47438866D02*
X23876190Y-47391247D01*
X23876190Y-47391247D02*
X23780952Y-47343628D01*
X23780952Y-47343628D02*
X23590476Y-47296009D01*
X23590476Y-47296009D02*
X23495238Y-47248390D01*
X23495238Y-47248390D02*
X23447619Y-47200771D01*
X23447619Y-47200771D02*
X23400000Y-47105533D01*
X23400000Y-47105533D02*
X23400000Y-47010295D01*
X23400000Y-47010295D02*
X23447619Y-46915057D01*
X23447619Y-46915057D02*
X23495238Y-46867438D01*
X23495238Y-46867438D02*
X23590476Y-46819819D01*
X23590476Y-46819819D02*
X23828571Y-46819819D01*
X23828571Y-46819819D02*
X23971428Y-46867438D01*
X24828571Y-47153152D02*
X24828571Y-47819819D01*
X24590476Y-46772200D02*
X24352381Y-47486485D01*
X24352381Y-47486485D02*
X24971428Y-47486485D01*
X22309523Y-36879819D02*
X22309523Y-37594104D01*
X22309523Y-37594104D02*
X22261904Y-37736961D01*
X22261904Y-37736961D02*
X22166666Y-37832200D01*
X22166666Y-37832200D02*
X22023809Y-37879819D01*
X22023809Y-37879819D02*
X21928571Y-37879819D01*
X22547619Y-37975057D02*
X23309523Y-37975057D01*
X23500000Y-37832200D02*
X23642857Y-37879819D01*
X23642857Y-37879819D02*
X23880952Y-37879819D01*
X23880952Y-37879819D02*
X23976190Y-37832200D01*
X23976190Y-37832200D02*
X24023809Y-37784580D01*
X24023809Y-37784580D02*
X24071428Y-37689342D01*
X24071428Y-37689342D02*
X24071428Y-37594104D01*
X24071428Y-37594104D02*
X24023809Y-37498866D01*
X24023809Y-37498866D02*
X23976190Y-37451247D01*
X23976190Y-37451247D02*
X23880952Y-37403628D01*
X23880952Y-37403628D02*
X23690476Y-37356009D01*
X23690476Y-37356009D02*
X23595238Y-37308390D01*
X23595238Y-37308390D02*
X23547619Y-37260771D01*
X23547619Y-37260771D02*
X23500000Y-37165533D01*
X23500000Y-37165533D02*
X23500000Y-37070295D01*
X23500000Y-37070295D02*
X23547619Y-36975057D01*
X23547619Y-36975057D02*
X23595238Y-36927438D01*
X23595238Y-36927438D02*
X23690476Y-36879819D01*
X23690476Y-36879819D02*
X23928571Y-36879819D01*
X23928571Y-36879819D02*
X24071428Y-36927438D01*
X24404762Y-36879819D02*
X25023809Y-36879819D01*
X25023809Y-36879819D02*
X24690476Y-37260771D01*
X24690476Y-37260771D02*
X24833333Y-37260771D01*
X24833333Y-37260771D02*
X24928571Y-37308390D01*
X24928571Y-37308390D02*
X24976190Y-37356009D01*
X24976190Y-37356009D02*
X25023809Y-37451247D01*
X25023809Y-37451247D02*
X25023809Y-37689342D01*
X25023809Y-37689342D02*
X24976190Y-37784580D01*
X24976190Y-37784580D02*
X24928571Y-37832200D01*
X24928571Y-37832200D02*
X24833333Y-37879819D01*
X24833333Y-37879819D02*
X24547619Y-37879819D01*
X24547619Y-37879819D02*
X24452381Y-37832200D01*
X24452381Y-37832200D02*
X24404762Y-37784580D01*
X22209523Y-76639819D02*
X22209523Y-77354104D01*
X22209523Y-77354104D02*
X22161904Y-77496961D01*
X22161904Y-77496961D02*
X22066666Y-77592200D01*
X22066666Y-77592200D02*
X21923809Y-77639819D01*
X21923809Y-77639819D02*
X21828571Y-77639819D01*
X22447619Y-77735057D02*
X23209523Y-77735057D01*
X23400000Y-77592200D02*
X23542857Y-77639819D01*
X23542857Y-77639819D02*
X23780952Y-77639819D01*
X23780952Y-77639819D02*
X23876190Y-77592200D01*
X23876190Y-77592200D02*
X23923809Y-77544580D01*
X23923809Y-77544580D02*
X23971428Y-77449342D01*
X23971428Y-77449342D02*
X23971428Y-77354104D01*
X23971428Y-77354104D02*
X23923809Y-77258866D01*
X23923809Y-77258866D02*
X23876190Y-77211247D01*
X23876190Y-77211247D02*
X23780952Y-77163628D01*
X23780952Y-77163628D02*
X23590476Y-77116009D01*
X23590476Y-77116009D02*
X23495238Y-77068390D01*
X23495238Y-77068390D02*
X23447619Y-77020771D01*
X23447619Y-77020771D02*
X23400000Y-76925533D01*
X23400000Y-76925533D02*
X23400000Y-76830295D01*
X23400000Y-76830295D02*
X23447619Y-76735057D01*
X23447619Y-76735057D02*
X23495238Y-76687438D01*
X23495238Y-76687438D02*
X23590476Y-76639819D01*
X23590476Y-76639819D02*
X23828571Y-76639819D01*
X23828571Y-76639819D02*
X23971428Y-76687438D01*
X24876190Y-76639819D02*
X24400000Y-76639819D01*
X24400000Y-76639819D02*
X24352381Y-77116009D01*
X24352381Y-77116009D02*
X24400000Y-77068390D01*
X24400000Y-77068390D02*
X24495238Y-77020771D01*
X24495238Y-77020771D02*
X24733333Y-77020771D01*
X24733333Y-77020771D02*
X24828571Y-77068390D01*
X24828571Y-77068390D02*
X24876190Y-77116009D01*
X24876190Y-77116009D02*
X24923809Y-77211247D01*
X24923809Y-77211247D02*
X24923809Y-77449342D01*
X24923809Y-77449342D02*
X24876190Y-77544580D01*
X24876190Y-77544580D02*
X24828571Y-77592200D01*
X24828571Y-77592200D02*
X24733333Y-77639819D01*
X24733333Y-77639819D02*
X24495238Y-77639819D01*
X24495238Y-77639819D02*
X24400000Y-77592200D01*
X24400000Y-77592200D02*
X24352381Y-77544580D01*
X22209523Y-56759819D02*
X22209523Y-57474104D01*
X22209523Y-57474104D02*
X22161904Y-57616961D01*
X22161904Y-57616961D02*
X22066666Y-57712200D01*
X22066666Y-57712200D02*
X21923809Y-57759819D01*
X21923809Y-57759819D02*
X21828571Y-57759819D01*
X22447619Y-57855057D02*
X23209523Y-57855057D01*
X23400000Y-57712200D02*
X23542857Y-57759819D01*
X23542857Y-57759819D02*
X23780952Y-57759819D01*
X23780952Y-57759819D02*
X23876190Y-57712200D01*
X23876190Y-57712200D02*
X23923809Y-57664580D01*
X23923809Y-57664580D02*
X23971428Y-57569342D01*
X23971428Y-57569342D02*
X23971428Y-57474104D01*
X23971428Y-57474104D02*
X23923809Y-57378866D01*
X23923809Y-57378866D02*
X23876190Y-57331247D01*
X23876190Y-57331247D02*
X23780952Y-57283628D01*
X23780952Y-57283628D02*
X23590476Y-57236009D01*
X23590476Y-57236009D02*
X23495238Y-57188390D01*
X23495238Y-57188390D02*
X23447619Y-57140771D01*
X23447619Y-57140771D02*
X23400000Y-57045533D01*
X23400000Y-57045533D02*
X23400000Y-56950295D01*
X23400000Y-56950295D02*
X23447619Y-56855057D01*
X23447619Y-56855057D02*
X23495238Y-56807438D01*
X23495238Y-56807438D02*
X23590476Y-56759819D01*
X23590476Y-56759819D02*
X23828571Y-56759819D01*
X23828571Y-56759819D02*
X23971428Y-56807438D01*
X24923809Y-57759819D02*
X24352381Y-57759819D01*
X24638095Y-57759819D02*
X24638095Y-56759819D01*
X24638095Y-56759819D02*
X24542857Y-56902676D01*
X24542857Y-56902676D02*
X24447619Y-56997914D01*
X24447619Y-56997914D02*
X24352381Y-57045533D01*
D11*
%TO.C,J_OLED*%
X48770000Y-16830000D02*
X56450000Y-16830000D01*
X48770000Y-16830000D02*
X48770000Y-14170000D01*
X56450000Y-16830000D02*
X56450000Y-14170000D01*
X46170000Y-15500000D02*
X46170000Y-14170000D01*
X46170000Y-14170000D02*
X47500000Y-14170000D01*
X48770000Y-14170000D02*
X56450000Y-14170000D01*
%TO.C,J_ESP_L*%
X36770000Y-52210000D02*
X36770000Y-87830000D01*
X36770000Y-52210000D02*
X39430000Y-52210000D01*
X36770000Y-87830000D02*
X39430000Y-87830000D01*
X38100000Y-49610000D02*
X39430000Y-49610000D01*
X39430000Y-49610000D02*
X39430000Y-50940000D01*
X39430000Y-52210000D02*
X39430000Y-87830000D01*
%TO.C,J_ESP_R*%
X62170000Y-52210000D02*
X62170000Y-87830000D01*
X62170000Y-52210000D02*
X64830000Y-52210000D01*
X62170000Y-87830000D02*
X64830000Y-87830000D01*
X63500000Y-49610000D02*
X64830000Y-49610000D01*
X64830000Y-49610000D02*
X64830000Y-50940000D01*
X64830000Y-52210000D02*
X64830000Y-87830000D01*
%TO.C,J_S2*%
X26650000Y-68345000D02*
X28450000Y-68345000D01*
X28450000Y-69095000D01*
X26650000Y-69095000D01*
X26650000Y-68345000D01*
X21650000Y-68345000D02*
X25150000Y-68345000D01*
X25150000Y-69095000D01*
X21650000Y-69095000D01*
X21650000Y-68345000D01*
X18350000Y-68345000D02*
X20150000Y-68345000D01*
X20150000Y-69095000D01*
X18350000Y-69095000D01*
X18350000Y-68345000D01*
X18340000Y-68335000D02*
X28460000Y-68335000D01*
X28460000Y-74305000D01*
X18340000Y-74305000D01*
X18340000Y-68335000D01*
X28450000Y-70595000D02*
X27700000Y-70595000D01*
X27700000Y-73545000D02*
X23400000Y-73545000D01*
X27700000Y-70595000D02*
X27700000Y-73545000D01*
X19300000Y-68045000D02*
X18050000Y-68045000D01*
X19100000Y-73545000D02*
X23400000Y-73545000D01*
X19100000Y-70595000D02*
X19100000Y-73545000D01*
X18350000Y-70595000D02*
X19100000Y-70595000D01*
X18050000Y-68045000D02*
X18050000Y-69295000D01*
%TO.C,J_S4*%
X26650000Y-48465000D02*
X28450000Y-48465000D01*
X28450000Y-49215000D01*
X26650000Y-49215000D01*
X26650000Y-48465000D01*
X21650000Y-48465000D02*
X25150000Y-48465000D01*
X25150000Y-49215000D01*
X21650000Y-49215000D01*
X21650000Y-48465000D01*
X18350000Y-48465000D02*
X20150000Y-48465000D01*
X20150000Y-49215000D01*
X18350000Y-49215000D01*
X18350000Y-48465000D01*
X18340000Y-48455000D02*
X28460000Y-48455000D01*
X28460000Y-54425000D01*
X18340000Y-54425000D01*
X18340000Y-48455000D01*
X28450000Y-50715000D02*
X27700000Y-50715000D01*
X27700000Y-53665000D02*
X23400000Y-53665000D01*
X27700000Y-50715000D02*
X27700000Y-53665000D01*
X19300000Y-48165000D02*
X18050000Y-48165000D01*
X19100000Y-53665000D02*
X23400000Y-53665000D01*
X19100000Y-50715000D02*
X19100000Y-53665000D01*
X18350000Y-50715000D02*
X19100000Y-50715000D01*
X18050000Y-48165000D02*
X18050000Y-49415000D01*
%TO.C,J_S3*%
X26750000Y-38525000D02*
X28550000Y-38525000D01*
X28550000Y-39275000D01*
X26750000Y-39275000D01*
X26750000Y-38525000D01*
X21750000Y-38525000D02*
X25250000Y-38525000D01*
X25250000Y-39275000D01*
X21750000Y-39275000D01*
X21750000Y-38525000D01*
X18450000Y-38525000D02*
X20250000Y-38525000D01*
X20250000Y-39275000D01*
X18450000Y-39275000D01*
X18450000Y-38525000D01*
X18440000Y-38515000D02*
X28560000Y-38515000D01*
X28560000Y-44485000D01*
X18440000Y-44485000D01*
X18440000Y-38515000D01*
X28550000Y-40775000D02*
X27800000Y-40775000D01*
X27800000Y-43725000D02*
X23500000Y-43725000D01*
X27800000Y-40775000D02*
X27800000Y-43725000D01*
X19400000Y-38225000D02*
X18150000Y-38225000D01*
X19200000Y-43725000D02*
X23500000Y-43725000D01*
X19200000Y-40775000D02*
X19200000Y-43725000D01*
X18450000Y-40775000D02*
X19200000Y-40775000D01*
X18150000Y-38225000D02*
X18150000Y-39475000D01*
%TO.C,J_S5*%
X26650000Y-78285000D02*
X28450000Y-78285000D01*
X28450000Y-79035000D01*
X26650000Y-79035000D01*
X26650000Y-78285000D01*
X21650000Y-78285000D02*
X25150000Y-78285000D01*
X25150000Y-79035000D01*
X21650000Y-79035000D01*
X21650000Y-78285000D01*
X18350000Y-78285000D02*
X20150000Y-78285000D01*
X20150000Y-79035000D01*
X18350000Y-79035000D01*
X18350000Y-78285000D01*
X18340000Y-78275000D02*
X28460000Y-78275000D01*
X28460000Y-84245000D01*
X18340000Y-84245000D01*
X18340000Y-78275000D01*
X28450000Y-80535000D02*
X27700000Y-80535000D01*
X27700000Y-83485000D02*
X23400000Y-83485000D01*
X27700000Y-80535000D02*
X27700000Y-83485000D01*
X19300000Y-77985000D02*
X18050000Y-77985000D01*
X19100000Y-83485000D02*
X23400000Y-83485000D01*
X19100000Y-80535000D02*
X19100000Y-83485000D01*
X18350000Y-80535000D02*
X19100000Y-80535000D01*
X18050000Y-77985000D02*
X18050000Y-79235000D01*
%TO.C,J_S1*%
X26650000Y-58405000D02*
X28450000Y-58405000D01*
X28450000Y-59155000D01*
X26650000Y-59155000D01*
X26650000Y-58405000D01*
X21650000Y-58405000D02*
X25150000Y-58405000D01*
X25150000Y-59155000D01*
X21650000Y-59155000D01*
X21650000Y-58405000D01*
X18350000Y-58405000D02*
X20150000Y-58405000D01*
X20150000Y-59155000D01*
X18350000Y-59155000D01*
X18350000Y-58405000D01*
X18340000Y-58395000D02*
X28460000Y-58395000D01*
X28460000Y-64365000D01*
X18340000Y-64365000D01*
X18340000Y-58395000D01*
X28450000Y-60655000D02*
X27700000Y-60655000D01*
X27700000Y-63605000D02*
X23400000Y-63605000D01*
X27700000Y-60655000D02*
X27700000Y-63605000D01*
X19300000Y-58105000D02*
X18050000Y-58105000D01*
X19100000Y-63605000D02*
X23400000Y-63605000D01*
X19100000Y-60655000D02*
X19100000Y-63605000D01*
X18350000Y-60655000D02*
X19100000Y-60655000D01*
X18050000Y-58105000D02*
X18050000Y-59355000D01*
%TD*%
M02*
