M48
; DRILL file {KiCad 9.0.7} date 2026-03-09T14:33:01-0700
; FORMAT={-:-/ absolute / metric / decimal}
; #@! TF.CreationDate,2026-03-09T14:33:01-07:00
; #@! TF.GenerationSoftware,Kicad,Pcbnew,9.0.7
; #@! TF.FileFunction,Plated,1,2,PTH
FMAT,2
METRIC
; #@! TA.AperFunction,Plated,PTH,ComponentDrill
T1C0.950
; #@! TA.AperFunction,Plated,PTH,ComponentDrill
T2C1.000
%
G90
G05
T1
X20.9Y-50.915
X20.9Y-60.855
X20.9Y-70.795
X20.9Y-80.735
X21.0Y-40.975
X23.4Y-50.915
X23.4Y-60.855
X23.4Y-70.795
X23.4Y-80.735
X23.5Y-40.975
X25.9Y-50.915
X25.9Y-60.855
X25.9Y-70.795
X25.9Y-80.735
X26.0Y-40.975
T2
X38.1Y-50.94
X38.1Y-53.48
X38.1Y-56.02
X38.1Y-58.56
X38.1Y-61.1
X38.1Y-63.64
X38.1Y-66.18
X38.1Y-68.72
X38.1Y-71.26
X38.1Y-73.8
X38.1Y-76.34
X38.1Y-78.88
X38.1Y-81.42
X38.1Y-83.96
X38.1Y-86.5
X47.5Y-15.5
X50.04Y-15.5
X52.58Y-15.5
X55.12Y-15.5
X63.5Y-50.94
X63.5Y-53.48
X63.5Y-56.02
X63.5Y-58.56
X63.5Y-61.1
X63.5Y-63.64
X63.5Y-66.18
X63.5Y-68.72
X63.5Y-71.26
X63.5Y-73.8
X63.5Y-76.34
X63.5Y-78.88
X63.5Y-81.42
X63.5Y-83.96
X63.5Y-86.5
M30
