%TF.GenerationSoftware,KiCad,Pcbnew,9.0.7*%
%TF.CreationDate,2026-03-09T14:32:53-07:00*%
%TF.ProjectId,plant_water_array,706c616e-745f-4776-9174-65725f617272,rev?*%
%TF.SameCoordinates,Original*%
%TF.FileFunction,Copper,L2,Bot*%
%TF.FilePolarity,Positive*%
%FSLAX46Y46*%
G04 Gerber Fmt 4.6, Leading zero omitted, Abs format (unit mm)*
G04 Created by KiCad (PCBNEW 9.0.7) date 2026-03-09 14:32:53*
%MOMM*%
%LPD*%
G01*
G04 APERTURE LIST*
G04 Aperture macros list*
%AMRoundRect*
0 Rectangle with rounded corners*
0 $1 Rounding radius*
0 $2 $3 $4 $5 $6 $7 $8 $9 X,Y pos of 4 corners*
0 Add a 4 corners polygon primitive as box body*
4,1,4,$2,$3,$4,$5,$6,$7,$8,$9,$2,$3,0*
0 Add four circle primitives for the rounded corners*
1,1,$1+$1,$2,$3*
1,1,$1+$1,$4,$5*
1,1,$1+$1,$6,$7*
1,1,$1+$1,$8,$9*
0 Add four rect primitives between the rounded corners*
20,1,$1+$1,$2,$3,$4,$5,0*
20,1,$1+$1,$4,$5,$6,$7,0*
20,1,$1+$1,$6,$7,$8,$9,0*
20,1,$1+$1,$8,$9,$2,$3,0*%
G04 Aperture macros list end*
%TA.AperFunction,ComponentPad*%
%ADD10R,1.700000X1.700000*%
%TD*%
%TA.AperFunction,ComponentPad*%
%ADD11C,1.700000*%
%TD*%
%TA.AperFunction,ComponentPad*%
%ADD12O,1.700000X1.950000*%
%TD*%
%TA.AperFunction,ComponentPad*%
%ADD13RoundRect,0.250000X-0.600000X-0.725000X0.600000X-0.725000X0.600000X0.725000X-0.600000X0.725000X0*%
%TD*%
G04 APERTURE END LIST*
D10*
%TO.P,J_OLED,1*%
%TO.N,GND*%
X47500000Y-15500000D03*
D11*
%TO.P,J_OLED,2*%
%TO.N,+3V3*%
X50040000Y-15500000D03*
%TO.P,J_OLED,3*%
%TO.N,I2C_SCL*%
X52580000Y-15500000D03*
%TO.P,J_OLED,4*%
%TO.N,I2C_SDA*%
X55120000Y-15500000D03*
%TD*%
D10*
%TO.P,J_ESP_L,1*%
%TO.N,+3V3*%
X38100000Y-50940000D03*
D11*
%TO.P,J_ESP_L,2*%
%TO.N,ESP_EN*%
X38100000Y-53480000D03*
%TO.P,J_ESP_L,3*%
%TO.N,SENSOR3_G36*%
X38100000Y-56020000D03*
%TO.P,J_ESP_L,4*%
%TO.N,SENSOR4_G39*%
X38100000Y-58560000D03*
%TO.P,J_ESP_L,5*%
%TO.N,SENSOR1_G34*%
X38100000Y-61100000D03*
%TO.P,J_ESP_L,6*%
%TO.N,SENSOR2_G35*%
X38100000Y-63640000D03*
%TO.P,J_ESP_L,7*%
%TO.N,SENSOR5_G32*%
X38100000Y-66180000D03*
%TO.P,J_ESP_L,8*%
%TO.N,ESP_G33*%
X38100000Y-68720000D03*
%TO.P,J_ESP_L,9*%
%TO.N,ESP_G25*%
X38100000Y-71260000D03*
%TO.P,J_ESP_L,10*%
%TO.N,ESP_G26*%
X38100000Y-73800000D03*
%TO.P,J_ESP_L,11*%
%TO.N,ESP_G27*%
X38100000Y-76340000D03*
%TO.P,J_ESP_L,12*%
%TO.N,ESP_G14*%
X38100000Y-78880000D03*
%TO.P,J_ESP_L,13*%
%TO.N,ESP_G12*%
X38100000Y-81420000D03*
%TO.P,J_ESP_L,14*%
%TO.N,GND*%
X38100000Y-83960000D03*
%TO.P,J_ESP_L,15*%
%TO.N,ESP_G13*%
X38100000Y-86500000D03*
%TD*%
D10*
%TO.P,J_ESP_R,1*%
%TO.N,ESP_VIN*%
X63500000Y-50940000D03*
D11*
%TO.P,J_ESP_R,2*%
%TO.N,GND*%
X63500000Y-53480000D03*
%TO.P,J_ESP_R,3*%
%TO.N,ESP_G23*%
X63500000Y-56020000D03*
%TO.P,J_ESP_R,4*%
%TO.N,I2C_SCL*%
X63500000Y-58560000D03*
%TO.P,J_ESP_R,5*%
%TO.N,ESP_TX0*%
X63500000Y-61100000D03*
%TO.P,J_ESP_R,6*%
%TO.N,ESP_RX0*%
X63500000Y-63640000D03*
%TO.P,J_ESP_R,7*%
%TO.N,I2C_SDA*%
X63500000Y-66180000D03*
%TO.P,J_ESP_R,8*%
%TO.N,ESP_G19*%
X63500000Y-68720000D03*
%TO.P,J_ESP_R,9*%
%TO.N,ESP_G18*%
X63500000Y-71260000D03*
%TO.P,J_ESP_R,10*%
%TO.N,ESP_G5*%
X63500000Y-73800000D03*
%TO.P,J_ESP_R,11*%
%TO.N,ESP_G17*%
X63500000Y-76340000D03*
%TO.P,J_ESP_R,12*%
%TO.N,ESP_G16*%
X63500000Y-78880000D03*
%TO.P,J_ESP_R,13*%
%TO.N,ESP_G4*%
X63500000Y-81420000D03*
%TO.P,J_ESP_R,14*%
%TO.N,ESP_G2*%
X63500000Y-83960000D03*
%TO.P,J_ESP_R,15*%
%TO.N,ESP_G15*%
X63500000Y-86500000D03*
%TD*%
D12*
%TO.P,J_S2,3*%
%TO.N,SENSOR2_G35*%
X25900000Y-70795000D03*
%TO.P,J_S2,2*%
%TO.N,+3V3*%
X23400000Y-70795000D03*
D13*
%TO.P,J_S2,1*%
%TO.N,GND*%
X20900000Y-70795000D03*
%TD*%
D12*
%TO.P,J_S4,3*%
%TO.N,SENSOR4_G39*%
X25900000Y-50915000D03*
%TO.P,J_S4,2*%
%TO.N,+3V3*%
X23400000Y-50915000D03*
D13*
%TO.P,J_S4,1*%
%TO.N,GND*%
X20900000Y-50915000D03*
%TD*%
D12*
%TO.P,J_S3,3*%
%TO.N,SENSOR3_G36*%
X26000000Y-40975000D03*
%TO.P,J_S3,2*%
%TO.N,+3V3*%
X23500000Y-40975000D03*
D13*
%TO.P,J_S3,1*%
%TO.N,GND*%
X21000000Y-40975000D03*
%TD*%
D12*
%TO.P,J_S5,3*%
%TO.N,SENSOR5_G32*%
X25900000Y-80735000D03*
%TO.P,J_S5,2*%
%TO.N,+3V3*%
X23400000Y-80735000D03*
D13*
%TO.P,J_S5,1*%
%TO.N,GND*%
X20900000Y-80735000D03*
%TD*%
D12*
%TO.P,J_S1,3*%
%TO.N,SENSOR1_G34*%
X25900000Y-60855000D03*
%TO.P,J_S1,2*%
%TO.N,+3V3*%
X23400000Y-60855000D03*
D13*
%TO.P,J_S1,1*%
%TO.N,GND*%
X20900000Y-60855000D03*
%TD*%
M02*
