<svg xmlns="http://www.w3.org/2000/svg" width="512" height="512" viewBox="0 0 512 512">
  <rect width="512" height="512" rx="64" fill="#0c1117"/>
  <g transform="translate(128,80) scale(10.67)">
    <path d="M12 22c0-8-6-10-6-16a6 6 0 1 1 12 0c0 6-6 8-6 16z" fill="#34d399" opacity="0.3"/>
    <path d="M12 22c0-8-6-10-6-16a6 6 0 1 1 12 0c0 6-6 8-6 16z" stroke="#34d399" stroke-width="1.5" fill="none"/>
    <path d="M12 22v-8" stroke="#34d399" stroke-width="1.5" stroke-linecap="round"/>
    <path d="M9 16c0-2 3-4 3-4s3 2 3 4" stroke="#34d399" stroke-width="1.2" stroke-linecap="round" fill="none"/>
  </g>
</svg>
